<svg id="Layer_1" data-name="Layer 1" xmlns="http://www.w3.org/2000/svg" xmlns:xlink="http://www.w3.org/1999/xlink" viewBox="0 0 590 342.29"><defs><style>.cls-1,.cls-10,.cls-6,.cls-8{fill:none;}.cls-2{fill:#0a1681;}.cls-10,.cls-3,.cls-4,.cls-7,.cls-8,.cls-9{isolation:isolate;}.cls-3,.cls-5{font-size:14.4px;}.cls-3,.cls-4,.cls-5{font-family:ArialMT, Arial;}.cls-4{font-size:17.28px;letter-spacing:-0.28em;}.cls-10,.cls-6,.cls-8{stroke:#fff;stroke-width:2px;}.cls-10,.cls-11,.cls-7,.cls-8,.cls-9{font-size:30px;font-family:Arial-BoldMT, Arial;font-weight:700;}.cls-7,.cls-9{fill:#fff;}.cls-10,.cls-8{stroke-linejoin:round;}.cls-10,.cls-9{letter-spacing:-0.28em;}.cls-11{fill:#333;}.cls-12{clip-path:url(#clip-path);}.cls-13{fill:gray;}</style><clipPath id="clip-path" transform="translate(-10 -73)"><rect class="cls-1" x="-3" y="73" width="580" height="323"/></clipPath></defs><rect class="cls-1" width="590" height="323"/><path class="cls-2" d="M36.75,351.25A250.25,250.25,0,0,1,257.59,102.73l7.05,59.59A190.24,190.24,0,0,0,96.75,351.25Z" transform="translate(-10 -73)"/><path class="cls-2" d="M257.59,102.73A250.35,250.35,0,0,1,381,119.3l-22.53,55.62a190.2,190.2,0,0,0-93.78-12.6Z" transform="translate(-10 -73)"/><path class="cls-2" d="M382.77,120.05a250.22,250.22,0,0,1,79.79,52.86l-42.09,42.76a190.47,190.47,0,0,0-60.66-40.19Z" transform="translate(-10 -73)"/><path class="cls-2" d="M464,174.3a250.17,250.17,0,0,1,53.49,79.37l-55.25,23.4a190.27,190.27,0,0,0-40.66-60.35Z" transform="translate(-10 -73)"/><path class="cls-2" d="M518.2,255.48a250.24,250.24,0,0,1,19,95.77h-60a190.33,190.33,0,0,0-14.48-72.81Z" transform="translate(-10 -73)"/><text class="cls-3" transform="translate(4 97)">Underweight</text><text class="cls-3" transform="translate(308 20)">Normal</text><text class="cls-3" transform="translate(422 41)">Excess</text><text class="cls-4" transform="translate(422 63)">​</text><text class="cls-5" transform="translate(422 63)">weight</text><text class="cls-3" transform="translate(495.59 133)">Obesity</text><text class="cls-3" transform="translate(530.19 222)">Extreme</text><text class="cls-4" transform="translate(534.19 244)">​</text><text class="cls-5" transform="translate(534.19 244)">obesity</text><path class="cls-1" d="M287,351.25H36.75" transform="translate(-10 -73)"/><path class="cls-1" d="M287,351.25,257.59,102.73" transform="translate(-10 -73)"/><path class="cls-1" d="M287,351.25,381,119.3" transform="translate(-10 -73)"/><path class="cls-1" d="M287,351.25,462.56,172.91" transform="translate(-10 -73)"/><path class="cls-1" d="M287,351.25l230.44-97.58" transform="translate(-10 -73)"/><path class="cls-1" d="M287,351.25H537.25" transform="translate(-10 -73)"/><rect class="cls-1" width="580" height="324"/><path class="cls-6" d="M36.75,351.25h60" transform="translate(-10 -73)"/><path class="cls-6" d="M257.59,102.73l7.05,59.59" transform="translate(-10 -73)"/><path class="cls-6" d="M381,119.3l-22.53,55.62" transform="translate(-10 -73)"/><path class="cls-6" d="M462.56,172.91l-42.09,42.76" transform="translate(-10 -73)"/><path class="cls-6" d="M517.44,253.67l-55.25,23.4" transform="translate(-10 -73)"/><path class="cls-6" d="M537.25,351.25h-60" transform="translate(-10 -73)"/><path class="cls-1" d="M36.75,351.25C36.75,213,148.79,101,287,101S537.25,213,537.25,351.25m-250.25,0h0" transform="translate(-10 -73)"/><text class="cls-7" transform="translate(259 318)">25</text><text class="cls-8" transform="translate(259 318)">25</text><text class="cls-9" transform="translate(259 318)">​</text><text class="cls-10" transform="translate(259 318)">​</text><text class="cls-11" transform="translate(228 331)">25 BMI</text><g class="cls-12"><path class="cls-13" d="M281.46,349h0l67.33-148.17.92.38L292.54,353.55h0Z" transform="translate(-10 -73)"/><circle class="cls-13" cx="277" cy="278.25" r="6"/></g></svg>