<svg id="Layer_3" data-name="Layer 3" xmlns="http://www.w3.org/2000/svg" viewBox="0 0 511 371.17"><defs><style>.cls-1{fill:#fff;}</style></defs><path class="cls-1" d="M295.34,442.08a10.33,10.33,0,0,1-4.07-.83c-3.82-1.62-94.27-40.5-156.12-108a12.67,12.67,0,0,1,.09-17,10.58,10.58,0,0,1,15.75.1c51.27,55.94,126.09,92.31,144.33,100.66,28.41-13.19,194.43-95.3,194.43-211.14,0-61.22-46.2-111-103-111-32.77,0-62.84,16.25-82.51,44.58a10.87,10.87,0,0,1-8.91,4.81h0a10.87,10.87,0,0,1-8.91-4.81c-19.65-28.33-49.72-44.58-82.5-44.58-56.78,0-103,49.81-103,111,0,3.79.18,7.54.52,11.24.61,6.6-3.86,12.48-10,13.14s-11.57-4.16-12.18-10.75q-.63-6.73-.62-13.63c0-74.45,56.17-135,125.23-135,35.19,0,67.81,15.39,91.41,42.7,23.62-27.31,56.24-42.7,91.42-42.7,69.06,0,125.24,60.57,125.24,135,0,142.27-203.86,231.56-212.54,235.29A10.34,10.34,0,0,1,295.34,442.08Z" transform="translate(-1 -70.92)"/><path class="cls-1" d="M267.52,368.21a11.24,11.24,0,0,1-10.63-8.5l-37-130.82-11.69,48.88a11.32,11.32,0,0,1-10.78,9H12.13C6,286.77,1,281.4,1,274.77s5-12,11.13-12H188.77l19.42-81.16a11.35,11.35,0,0,1,10.55-9H219a11.24,11.24,0,0,1,10.64,8.5l36.5,129,20.26-93.32a11.42,11.42,0,0,1,10.15-9.24c5.11-.35,9.43,2.87,11.14,7.83l16.19,47.41h57c6.15,0,11.13,5.37,11.13,12s-5,12-11.13,12H316.09a11.21,11.21,0,0,1-10.45-7.85l-6.06-17.73-21.22,97.75a11.37,11.37,0,0,1-10.47,9.26Z" transform="translate(-1 -70.92)"/></svg>