<svg id="Layer_1" data-name="Layer 1" xmlns="http://www.w3.org/2000/svg" viewBox="0 0 16.65 12.96"><defs><style>.cls-1{fill:#d8e1e0;}</style></defs><path class="cls-1" d="M290.8,417a1.39,1.39,0,0,1,2.78,0v3.24H290.8ZM289,417v6.48a3.24,3.24,0,0,0,6.48,0v-5.16a3.33,3.33,0,0,0,.57,1.58l3.72,5.42a3.19,3.19,0,0,0,4.5.81,3.34,3.34,0,0,0,.8-4.6l-3.71-5.42a3.21,3.21,0,0,0-4.51-.81,3.34,3.34,0,0,0-1.37,2.4V417a3.24,3.24,0,0,0-6.48,0Zm8.58,1.86a1.5,1.5,0,0,1,.34-2.05,1.35,1.35,0,0,1,1.91.35l1.94,2.82-2.31,1.62Zm5.62,5.76-.07.05.11-.08,0,0Z" transform="translate(-288.95 -413.79)"/></svg>