<svg xmlns="http://www.w3.org/2000/svg" xmlns:xlink="http://www.w3.org/1999/xlink" viewBox="0 0 53.28 82.07"><defs><style>.cls-1,.cls-21,.cls-6{fill:none;}.cls-2{isolation:isolate;}.cls-3{clip-path:url(#clip-path);}.cls-4,.cls-5,.cls-7{fill:#68bfec;}.cls-4{opacity:0.18;}.cls-6{stroke:#68bfec;stroke-linecap:round;stroke-linejoin:round;stroke-width:3px;}.cls-12,.cls-14,.cls-16,.cls-19,.cls-24,.cls-25,.cls-7{mix-blend-mode:multiply;}.cls-12,.cls-19,.cls-7,.cls-9{opacity:0.5;}.cls-8{fill:url(#Degradado_sin_nombre_7);}.cls-9{fill:#9cd8f6;}.cls-10,.cls-12,.cls-25{fill:#8ecef3;}.cls-11{fill:url(#Degradado_sin_nombre_7-2);}.cls-13,.cls-14{fill:#0f52a1;}.cls-14,.cls-25{opacity:0.3;}.cls-15{fill:#3970b7;}.cls-16,.cls-24{fill:#2c62ac;}.cls-16{opacity:0.1;}.cls-17,.cls-20,.cls-23{opacity:0.2;}.cls-17{fill:url(#Degradado_sin_nombre_16);}.cls-18,.cls-19{fill:url(#Degradado_sin_nombre_7-3);}.cls-20{fill:url(#Degradado_sin_nombre_16-2);}.cls-21{stroke:#2c62ac;stroke-miterlimit:10;stroke-width:5px;}.cls-22{fill:url(#Degradado_sin_nombre_7-5);}.cls-23{fill:url(#Degradado_sin_nombre_16-3);}.cls-24{opacity:0.08;}.cls-26{clip-path:url(#clip-path-2);}.cls-27{clip-path:url(#clip-path-3);}</style><clipPath id="clip-path" transform="translate(-7.98 -3.67)"><rect class="cls-1" width="61.21" height="90.58"/></clipPath><linearGradient id="Degradado_sin_nombre_7" x1="15.1" y1="40.78" x2="22.27" y2="40.78" gradientUnits="userSpaceOnUse"><stop offset="0" stop-color="#1b7fc3"/><stop offset="1" stop-color="#2c62ac"/></linearGradient><linearGradient id="Degradado_sin_nombre_7-2" x1="12.78" y1="66.22" x2="17.58" y2="66.22" xlink:href="#Degradado_sin_nombre_7"/><linearGradient id="Degradado_sin_nombre_16" x1="52.08" y1="40.84" x2="37.91" y2="40.84" gradientUnits="userSpaceOnUse"><stop offset="0" stop-color="#fff"/><stop offset="1" stop-color="#fff" stop-opacity="0"/></linearGradient><linearGradient id="Degradado_sin_nombre_7-3" x1="35.39" y1="52.44" x2="49.99" y2="52.44" xlink:href="#Degradado_sin_nombre_7"/><linearGradient id="Degradado_sin_nombre_16-2" x1="45.77" y1="44.7" x2="45.77" y2="61.13" xlink:href="#Degradado_sin_nombre_16"/><linearGradient id="Degradado_sin_nombre_7-5" x1="12.4" y1="55.83" x2="41.14" y2="55.83" xlink:href="#Degradado_sin_nombre_7"/><linearGradient id="Degradado_sin_nombre_16-3" x1="22.18" y1="50.79" x2="22.18" y2="65.68" xlink:href="#Degradado_sin_nombre_16"/><clipPath id="clip-path-2" transform="translate(-7.98 -3.67)"><circle class="cls-1" cx="48.87" cy="66.52" r="1.8"/></clipPath><clipPath id="clip-path-3" transform="translate(-7.98 -3.67)"><circle class="cls-1" cx="53.43" cy="66.52" r="1.8"/></clipPath></defs><g class="cls-2"><g id="Layer_1" data-name="Layer 1"><g class="cls-3"><path class="cls-4" d="M61,85.74A20.19,20.19,0,0,1,53,84.19c-4.83-1.75-8.61-5.19-12.9-7.89a18.82,18.82,0,0,0-7-2.92c-3.12-.51-6.25.17-9.32.73C19,75,12.59,75.57,9.51,70.76a6.29,6.29,0,0,1-.44-6.14c.94-2,2.67-3.54,3.88-5.39a6.82,6.82,0,0,0,1.21-3.57,13.52,13.52,0,0,0-.77-4.08c-.73-2.41-1.48-4.79-.91-7.32A10,10,0,0,1,16,38.69c2-1.59,4.33-1.95,6.79-2.18,2.63-.24,5-.77,6.84-2.84a11.15,11.15,0,0,0,2.47-6.08A13.42,13.42,0,0,0,32,24.18c-.19-1.33-.65-2.61-.93-3.92A8.91,8.91,0,0,1,32.77,13,23.21,23.21,0,0,1,45.22,4.55a24.8,24.8,0,0,1,3.63-.72,10.16,10.16,0,0,1,2.4-.13c.83.12,1.67.34,2.49.5,2.49.5,7.47,1.47,7.47,1.47" transform="translate(-7.98 -3.67)"/><circle class="cls-5" cx="21.1" cy="35.91" r="2.53"/><path class="cls-5" d="M25.11,37.58a1.05,1.05,0,0,1-1.06,1.06,1.06,1.06,0,0,1,1.06,1.07,1.07,1.07,0,0,1,1.07-1.07A1.06,1.06,0,0,1,25.11,37.58Z" transform="translate(-7.98 -3.67)"/><polyline class="cls-6" points="21 40.9 21.16 40.78 22.22 40.78 22.7 40.31 23.34 41.18 24.19 38.32 24.7 42.12 25.2 40.67 27.35 40.67 28.01 41.16 28.75 37.87 29.14 42.4 29.99 40.82 32.11 40.82 32.47 40.24 33.13 41.3 33.69 37.59 34.24 41.55 34.71 40.81 36.36 40.81"/><path class="cls-5" d="M21.9,40.31H20.18a.88.88,0,0,0-.86-.74H18.05a.87.87,0,0,0-.86.74H15.46a.36.36,0,0,0-.36.36v.94a.37.37,0,0,0,.36.37H21.9a.38.38,0,0,0,.37-.37v-.94A.37.37,0,0,0,21.9,40.31Z" transform="translate(-7.98 -3.67)"/><rect class="cls-5" x="2.03" y="37.41" width="17.34" height="22.31" rx="4.63"/><polygon class="cls-7" points="5.89 40.94 5.05 40.94 5.05 40.09 3.97 40.09 3.97 40.94 3.13 40.94 3.13 42.01 3.97 42.01 3.97 42.85 5.05 42.85 5.05 42.01 5.89 42.01 5.89 40.94"/><path class="cls-8" d="M21.9,40.31H20.18a.88.88,0,0,0-.86-.74H18.05a.87.87,0,0,0-.86.74H15.46a.36.36,0,0,0-.36.36v.94a.37.37,0,0,0,.36.37H21.9a.38.38,0,0,0,.37-.37v-.94A.37.37,0,0,0,21.9,40.31Z" transform="translate(-7.98 -3.67)"/><rect class="cls-7" x="6.65" y="40.09" width="11.56" height="2.76"/><rect class="cls-9" x="3.13" y="44.44" width="14.98" height="0.7"/><rect class="cls-9" x="3.13" y="46.13" width="14.98" height="0.7"/><rect class="cls-9" x="3.13" y="47.82" width="14.98" height="0.7"/><rect class="cls-9" x="3.13" y="49.51" width="14.98" height="0.7"/><rect class="cls-9" x="3.13" y="51.2" width="14.98" height="0.7"/><rect class="cls-9" x="3.13" y="52.89" width="14.98" height="0.7"/><rect class="cls-9" x="3.13" y="54.58" width="14.98" height="0.7"/><rect class="cls-9" x="3.13" y="56.27" width="8.43" height="0.7"/><path class="cls-10" d="M15.91,67.9H9.66A1.68,1.68,0,0,1,8,66.22H8a1.68,1.68,0,0,1,1.68-1.67h6.25a1.67,1.67,0,0,1,1.67,1.67h0A1.68,1.68,0,0,1,15.91,67.9Z" transform="translate(-7.98 -3.67)"/><path class="cls-11" d="M15.91,64.55H12.78V67.9h3.13a1.68,1.68,0,0,0,1.67-1.68h0A1.67,1.67,0,0,0,15.91,64.55Z" transform="translate(-7.98 -3.67)"/><path class="cls-12" d="M15.91,67.41H9.66A1.69,1.69,0,0,1,8,66a1.94,1.94,0,0,0,0,.24H8A1.68,1.68,0,0,0,9.66,67.9h6.25a1.68,1.68,0,0,0,1.67-1.68h0a1,1,0,0,0,0-.24A1.68,1.68,0,0,1,15.91,67.41Z" transform="translate(-7.98 -3.67)"/><rect class="cls-13" x="38.57" y="41.59" width="8.24" height="2.83"/><rect class="cls-13" x="38.33" y="41.59" width="8.73" height="1.12"/><rect class="cls-14" x="38.33" y="41.59" width="8.73" height="1.12"/><path class="cls-15" d="M42.69,43h0a7.3,7.3,0,0,1,7.3,7.3v7.23a4.61,4.61,0,0,1-4.61,4.61H40a4.61,4.61,0,0,1-4.61-4.61V50.33a7.3,7.3,0,0,1,7.3-7.3Z"/><rect class="cls-5" x="38.17" y="39.2" width="9.04" height="3.28"/><rect class="cls-16" x="38.52" y="39.2" width="0.35" height="3.28"/><rect class="cls-16" x="39.38" y="39.2" width="0.35" height="3.28"/><rect class="cls-16" x="40.24" y="39.2" width="0.35" height="3.28"/><rect class="cls-16" x="41.1" y="39.2" width="0.35" height="3.28"/><rect class="cls-16" x="41.96" y="39.2" width="0.35" height="3.28"/><rect class="cls-16" x="42.81" y="39.2" width="0.35" height="3.28"/><rect class="cls-16" x="43.67" y="39.2" width="0.35" height="3.28"/><rect class="cls-16" x="44.53" y="39.2" width="0.35" height="3.28"/><rect class="cls-16" x="45.39" y="39.2" width="0.35" height="3.28"/><rect class="cls-16" x="46.25" y="39.2" width="0.35" height="3.28"/><rect class="cls-17" x="43.28" y="39.2" width="3.93" height="3.28"/><rect class="cls-18" x="35.39" y="48.98" width="14.6" height="6.93"/><rect class="cls-19" x="35.39" y="48.98" width="14.6" height="6.93"/><polygon class="cls-15" points="44.5 51.73 43.4 51.73 43.4 50.63 41.98 50.63 41.98 51.73 40.88 51.73 40.88 53.15 41.98 53.15 41.98 54.26 43.4 54.26 43.4 53.15 44.5 53.15 44.5 51.73"/><path class="cls-20" d="M44.71,51.5a4.44,4.44,0,0,1,3-4.36,4.29,4.29,0,0,0-3.9,4.5v12a4.2,4.2,0,0,0,.94,1.19,5.09,5.09,0,0,1,0-.69Z" transform="translate(-7.98 -3.67)"/><rect class="cls-21" x="22.5" y="44.22" width="5.51" height="9" rx="2.76"/><rect class="cls-13" x="21.51" y="46.42" width="1.89" height="2.01"/><rect class="cls-13" x="27.06" y="46.42" width="1.89" height="2.01"/><rect class="cls-13" x="14.51" y="62.84" width="1.89" height="2.01"/><rect class="cls-13" x="34.1" y="62.84" width="1.89" height="2.01"/><rect class="cls-22" x="12.4" y="47.07" width="25.7" height="17.51" rx="8.66"/><path class="cls-23" d="M21.75,66.78V52.85a1.68,1.68,0,0,1,1.58-1.76H22.6A1.68,1.68,0,0,0,21,52.85V66.78Z" transform="translate(-7.98 -3.67)"/><polygon class="cls-5" points="30.66 53.71 27.37 53.71 27.37 50.42 23.14 50.42 23.14 53.71 19.84 53.71 19.84 57.94 23.14 57.94 23.14 61.23 27.37 61.23 27.37 57.94 30.66 57.94 30.66 53.71"/><path class="cls-24" d="M22,68.25H44.51a1.58,1.58,0,0,0,1.58-1.58V52.31a1.57,1.57,0,0,0-1.58-1.57H42.82c.55,1,1.38,3.45.7,7.72-1.08,6.76-11.09,12.22-23.13,6.72v1.49A1.57,1.57,0,0,0,22,68.25Z" transform="translate(-7.98 -3.67)"/><circle class="cls-10" cx="40.89" cy="62.85" r="1.8"/><path class="cls-10" d="M49.42,64.8a1.81,1.81,0,0,1,1.25,1.72,1.79,1.79,0,0,1-1.8,1.8,2,2,0,0,1-.35,0,2,2,0,0,0,.55.09,1.81,1.81,0,0,0,.35-3.58Z" transform="translate(-7.98 -3.67)"/><path class="cls-25" d="M49.42,64.8a1.81,1.81,0,0,1,1.25,1.72,1.79,1.79,0,0,1-1.8,1.8,2,2,0,0,1-.35,0,2,2,0,0,0,.55.09,1.81,1.81,0,0,0,.35-3.58Z" transform="translate(-7.98 -3.67)"/><g class="cls-26"><rect class="cls-25" x="40.68" y="60.43" width="0.41" height="4.95"/></g><circle class="cls-10" cx="45.45" cy="62.85" r="1.8"/><path class="cls-10" d="M54,64.8a1.82,1.82,0,0,1,1.26,1.72,1.8,1.8,0,0,1-1.81,1.8,2.07,2.07,0,0,1-.35,0,2.05,2.05,0,0,0,.56.09A1.81,1.81,0,0,0,54,64.8Z" transform="translate(-7.98 -3.67)"/><path class="cls-25" d="M54,64.8a1.82,1.82,0,0,1,1.26,1.72,1.8,1.8,0,0,1-1.81,1.8,2.07,2.07,0,0,1-.35,0,2.05,2.05,0,0,0,.56.09A1.81,1.81,0,0,0,54,64.8Z" transform="translate(-7.98 -3.67)"/><g class="cls-27"><rect class="cls-25" x="45.24" y="60.43" width="0.41" height="4.95"/></g></g><line class="cls-5" x1="53.22" y1="1.07" x2="53.28" y2="82.07"/></g></g></svg>