<svg id="Layer_3" data-name="Layer 3" xmlns="http://www.w3.org/2000/svg" viewBox="0 0 324.12 420.25"><defs><style>.cls-1{fill:#0a1681;}</style></defs><path class="cls-1" d="M181.36,99.46a37.24,37.24,0,1,1,37.23,37.24A37.23,37.23,0,0,1,181.36,99.46Zm31,235.82v99.29a24.83,24.83,0,1,1-49.65,0V261.51l-22.18,36.92a24.81,24.81,0,1,1-42.51-25.59l45.22-75.25a74.53,74.53,0,0,1,63.84-36.15h23A74.52,74.52,0,0,1,294,197.59l45.23,75.25a24.81,24.81,0,0,1-42.51,25.59l-22.26-36.92V434.57a24.83,24.83,0,1,1-49.65,0V335.28Z" transform="translate(-94.5 -46.38)"/><path class="cls-1" d="M418.61,465.58a1,1,0,0,1-1,1H365.3a1,1,0,1,1,0-2.09h52.27A1,1,0,0,1,418.61,465.58Z" transform="translate(-94.5 -46.38)"/><path class="cls-1" d="M418.61,256.5a1,1,0,0,1-1,1.05H365.3a1.05,1.05,0,1,1,0-2.1h52.27A1,1,0,0,1,418.61,256.5Z" transform="translate(-94.5 -46.38)"/><path class="cls-1" d="M402.67,361a.78.78,0,0,1-.78.78H365.3a.78.78,0,1,1,0-1.56h36.59A.78.78,0,0,1,402.67,361Z" transform="translate(-94.5 -46.38)"/><path class="cls-1" d="M386.6,382a.4.4,0,0,1-.39.39H365.3a.39.39,0,0,1-.39-.39.38.38,0,0,1,.39-.39h20.91A.39.39,0,0,1,386.6,382Z" transform="translate(-94.5 -46.38)"/><path class="cls-1" d="M386.6,402.86a.4.4,0,0,1-.39.39H365.3a.4.4,0,0,1,0-.79h20.91A.4.4,0,0,1,386.6,402.86Z" transform="translate(-94.5 -46.38)"/><path class="cls-1" d="M386.6,423.76a.4.4,0,0,1-.39.4H365.3a.4.4,0,0,1,0-.79h20.91A.4.4,0,0,1,386.6,423.76Z" transform="translate(-94.5 -46.38)"/><path class="cls-1" d="M386.6,444.67a.39.39,0,0,1-.39.39H365.3a.39.39,0,1,1,0-.78h20.91A.39.39,0,0,1,386.6,444.67Z" transform="translate(-94.5 -46.38)"/><path class="cls-1" d="M378.24,392.4a.39.39,0,0,1-.4.39H365.3a.38.38,0,0,1-.39-.39.39.39,0,0,1,.39-.39h12.54A.4.4,0,0,1,378.24,392.4Z" transform="translate(-94.5 -46.38)"/><path class="cls-1" d="M378.24,371.49a.4.4,0,0,1-.4.4H365.3a.4.4,0,0,1,0-.79h12.54A.4.4,0,0,1,378.24,371.49Z" transform="translate(-94.5 -46.38)"/><path class="cls-1" d="M378.24,413.31a.39.39,0,0,1-.4.39H365.3a.39.39,0,0,1,0-.78h12.54A.39.39,0,0,1,378.24,413.31Z" transform="translate(-94.5 -46.38)"/><path class="cls-1" d="M378.24,434.22a.4.4,0,0,1-.4.39H365.3a.39.39,0,0,1-.39-.39.38.38,0,0,1,.39-.39h12.54A.39.39,0,0,1,378.24,434.22Z" transform="translate(-94.5 -46.38)"/><path class="cls-1" d="M378.24,455.13a.4.4,0,0,1-.4.39H365.3a.4.4,0,0,1,0-.79h12.54A.4.4,0,0,1,378.24,455.13Z" transform="translate(-94.5 -46.38)"/><path class="cls-1" d="M386.6,277.41a.4.4,0,0,1-.39.39H365.3a.39.39,0,0,1-.39-.39.38.38,0,0,1,.39-.39h20.91A.39.39,0,0,1,386.6,277.41Z" transform="translate(-94.5 -46.38)"/><path class="cls-1" d="M386.6,298.32a.4.4,0,0,1-.39.39H365.3a.4.4,0,0,1,0-.79h20.91A.4.4,0,0,1,386.6,298.32Z" transform="translate(-94.5 -46.38)"/><path class="cls-1" d="M386.6,319.22a.4.4,0,0,1-.39.4H365.3a.4.4,0,0,1,0-.79h20.91A.4.4,0,0,1,386.6,319.22Z" transform="translate(-94.5 -46.38)"/><path class="cls-1" d="M386.6,340.13a.39.39,0,0,1-.39.39H365.3a.38.38,0,0,1-.39-.39.39.39,0,0,1,.39-.39h20.91A.4.4,0,0,1,386.6,340.13Z" transform="translate(-94.5 -46.38)"/><path class="cls-1" d="M378.24,287.86a.39.39,0,0,1-.4.39H365.3a.38.38,0,0,1-.39-.39.39.39,0,0,1,.39-.39h12.54A.4.4,0,0,1,378.24,287.86Z" transform="translate(-94.5 -46.38)"/><path class="cls-1" d="M378.24,267a.4.4,0,0,1-.4.4H365.3a.4.4,0,0,1,0-.79h12.54A.4.4,0,0,1,378.24,267Z" transform="translate(-94.5 -46.38)"/><path class="cls-1" d="M378.24,308.77a.39.39,0,0,1-.4.39H365.3a.39.39,0,1,1,0-.78h12.54A.39.39,0,0,1,378.24,308.77Z" transform="translate(-94.5 -46.38)"/><path class="cls-1" d="M378.24,329.68a.4.4,0,0,1-.4.39H365.3a.39.39,0,0,1-.39-.39.38.38,0,0,1,.39-.39h12.54A.39.39,0,0,1,378.24,329.68Z" transform="translate(-94.5 -46.38)"/><path class="cls-1" d="M378.24,350.59a.4.4,0,0,1-.4.39H365.3a.4.4,0,0,1,0-.79h12.54A.4.4,0,0,1,378.24,350.59Z" transform="translate(-94.5 -46.38)"/><path class="cls-1" d="M418.61,47.42a1,1,0,0,1-1,1H365.3a1,1,0,1,1,0-2.09h52.27A1,1,0,0,1,418.61,47.42Z" transform="translate(-94.5 -46.38)"/><path class="cls-1" d="M402.67,152a.78.78,0,0,1-.78.78H365.3a.78.78,0,1,1,0-1.56h36.59A.78.78,0,0,1,402.67,152Z" transform="translate(-94.5 -46.38)"/><path class="cls-1" d="M386.6,172.87a.4.4,0,0,1-.39.39H365.3a.39.39,0,0,1-.39-.39.38.38,0,0,1,.39-.39h20.91A.39.39,0,0,1,386.6,172.87Z" transform="translate(-94.5 -46.38)"/><path class="cls-1" d="M386.6,193.78a.4.4,0,0,1-.39.39H365.3a.4.4,0,0,1,0-.79h20.91A.4.4,0,0,1,386.6,193.78Z" transform="translate(-94.5 -46.38)"/><path class="cls-1" d="M386.6,214.68a.4.4,0,0,1-.39.4H365.3a.4.4,0,0,1,0-.79h20.91A.4.4,0,0,1,386.6,214.68Z" transform="translate(-94.5 -46.38)"/><path class="cls-1" d="M386.6,235.59a.39.39,0,0,1-.39.39H365.3a.38.38,0,0,1-.39-.39.39.39,0,0,1,.39-.39h20.91A.4.4,0,0,1,386.6,235.59Z" transform="translate(-94.5 -46.38)"/><path class="cls-1" d="M378.24,183.32a.39.39,0,0,1-.4.39H365.3a.38.38,0,0,1-.39-.39.39.39,0,0,1,.39-.39h12.54A.4.4,0,0,1,378.24,183.32Z" transform="translate(-94.5 -46.38)"/><path class="cls-1" d="M378.24,162.41a.4.4,0,0,1-.4.4H365.3a.4.4,0,0,1,0-.79h12.54A.4.4,0,0,1,378.24,162.41Z" transform="translate(-94.5 -46.38)"/><path class="cls-1" d="M378.24,204.23a.39.39,0,0,1-.4.39H365.3a.39.39,0,0,1,0-.78h12.54A.39.39,0,0,1,378.24,204.23Z" transform="translate(-94.5 -46.38)"/><path class="cls-1" d="M378.24,225.14a.4.4,0,0,1-.4.39H365.3a.39.39,0,0,1-.39-.39.38.38,0,0,1,.39-.39h12.54A.39.39,0,0,1,378.24,225.14Z" transform="translate(-94.5 -46.38)"/><path class="cls-1" d="M378.24,246.05a.4.4,0,0,1-.4.39H365.3a.4.4,0,0,1,0-.79h12.54A.4.4,0,0,1,378.24,246.05Z" transform="translate(-94.5 -46.38)"/><path class="cls-1" d="M386.6,68.33a.39.39,0,0,1-.39.39H365.3a.39.39,0,0,1,0-.78h20.91A.39.39,0,0,1,386.6,68.33Z" transform="translate(-94.5 -46.38)"/><path class="cls-1" d="M386.6,89.24a.4.4,0,0,1-.39.39H365.3a.4.4,0,0,1,0-.79h20.91A.4.4,0,0,1,386.6,89.24Z" transform="translate(-94.5 -46.38)"/><path class="cls-1" d="M386.6,110.14a.4.4,0,0,1-.39.4H365.3a.4.4,0,0,1,0-.79h20.91A.4.4,0,0,1,386.6,110.14Z" transform="translate(-94.5 -46.38)"/><path class="cls-1" d="M386.6,131.05a.39.39,0,0,1-.39.39H365.3a.38.38,0,0,1-.39-.39.39.39,0,0,1,.39-.39h20.91A.4.4,0,0,1,386.6,131.05Z" transform="translate(-94.5 -46.38)"/><path class="cls-1" d="M378.24,78.78a.39.39,0,0,1-.4.39H365.3a.38.38,0,0,1-.39-.39.39.39,0,0,1,.39-.39h12.54A.4.4,0,0,1,378.24,78.78Z" transform="translate(-94.5 -46.38)"/><path class="cls-1" d="M378.24,57.87a.4.4,0,0,1-.4.4H365.3a.4.4,0,0,1,0-.79h12.54A.4.4,0,0,1,378.24,57.87Z" transform="translate(-94.5 -46.38)"/><path class="cls-1" d="M378.24,99.69a.39.39,0,0,1-.4.39H365.3a.39.39,0,0,1,0-.78h12.54A.39.39,0,0,1,378.24,99.69Z" transform="translate(-94.5 -46.38)"/><path class="cls-1" d="M378.24,120.6a.4.4,0,0,1-.4.39H365.3a.39.39,0,0,1-.39-.39.38.38,0,0,1,.39-.39h12.54A.39.39,0,0,1,378.24,120.6Z" transform="translate(-94.5 -46.38)"/><path class="cls-1" d="M378.24,141.51a.4.4,0,0,1-.4.39H365.3a.4.4,0,0,1,0-.79h12.54A.4.4,0,0,1,378.24,141.51Z" transform="translate(-94.5 -46.38)"/></svg>