<svg id="Layer_3" data-name="Layer 3" xmlns="http://www.w3.org/2000/svg" viewBox="0 0 289.31 289.32"><defs><style>.cls-1{fill:#0a1681;}.cls-2{fill:#fff;}.cls-3{fill:#451613;}</style></defs><path class="cls-1" d="M33.06,0H256.25a33.06,33.06,0,0,1,33.06,33.06V256.25a33.06,33.06,0,0,1-33.06,33.06H33.07A33.07,33.07,0,0,1,0,256.25V33.06A33.06,33.06,0,0,1,33.06,0Z"/><path class="cls-2" d="M331.19,208.19A71.7,71.7,0,0,0,187.8,209a6.82,6.82,0,0,0,6.82,6.83H324.41a6.83,6.83,0,0,0,6.83-6.83A7.73,7.73,0,0,0,331.19,208.19Z" transform="translate(-111.84 -111.84)"/><path class="cls-3" d="M270.06,214.55a12.27,12.27,0,0,0-24.53.14,1.17,1.17,0,0,0,1.17,1.17h22.2a1.17,1.17,0,0,0,1.17-1.17A.61.61,0,0,0,270.06,214.55Z" transform="translate(-111.84 -111.84)"/><path class="cls-3" d="M205.21,208.62H197a2.75,2.75,0,1,1,0-5.5h8.23a2.75,2.75,0,1,1,0,5.5Z" transform="translate(-111.84 -111.84)"/><path class="cls-3" d="M221,172.07a2.79,2.79,0,0,1-2-.8l-5.44-5.45a2.75,2.75,0,1,1,3.89-3.89l5.45,5.44a2.75,2.75,0,0,1-1.95,4.7Z" transform="translate(-111.84 -111.84)"/><path class="cls-3" d="M260.27,156.34a2.76,2.76,0,0,1-2.76-2.76v-8.24a2.76,2.76,0,1,1,5.51,0v8.24A2.76,2.76,0,0,1,260.27,156.34Z" transform="translate(-111.84 -111.84)"/><path class="cls-3" d="M239.4,159.93a2.73,2.73,0,0,1-2.55-1.72l-2.92-7.2a2.75,2.75,0,1,1,5.1-2.07l2.92,7.21a2.75,2.75,0,0,1-1.51,3.58A2.71,2.71,0,0,1,239.4,159.93Z" transform="translate(-111.84 -111.84)"/><path class="cls-3" d="M210,188a2.65,2.65,0,0,1-1-.2l-7.38-3a2.76,2.76,0,0,1,2-5.12l7.38,3a2.75,2.75,0,0,1-1,5.31Z" transform="translate(-111.84 -111.84)"/><path class="cls-3" d="M323.55,209.61h-8.23a2.76,2.76,0,0,1,0-5.51h8.23a2.76,2.76,0,1,1,0,5.51Z" transform="translate(-111.84 -111.84)"/><path class="cls-3" d="M299.58,173.06a2.75,2.75,0,0,1-2-4.7l5.45-5.44a2.75,2.75,0,0,1,3.89,3.89l-5.44,5.45A2.77,2.77,0,0,1,299.58,173.06Z" transform="translate(-111.84 -111.84)"/><path class="cls-3" d="M281.13,160.92a2.69,2.69,0,0,1-1-.2,2.76,2.76,0,0,1-1.52-3.59l2.92-7.2a2.76,2.76,0,1,1,5.11,2.07l-2.92,7.2A2.75,2.75,0,0,1,281.13,160.92Z" transform="translate(-111.84 -111.84)"/><path class="cls-3" d="M310.51,189a2.75,2.75,0,0,1-1-5.31l7.38-3a2.76,2.76,0,1,1,2.05,5.12l-7.38,3A2.61,2.61,0,0,1,310.51,189Z" transform="translate(-111.84 -111.84)"/><path class="cls-3" d="M257.17,205l-29.1-30.27a2.76,2.76,0,0,0-4.23,3.52L248.75,213a2.75,2.75,0,0,0,2.06,1.14H251a2.76,2.76,0,0,0,2-.87l4.19-4.52A2.75,2.75,0,0,0,257.17,205Z" transform="translate(-111.84 -111.84)"/></svg>